<?xml version="1.0" encoding="UTF-8" standalone="no"?>
<!-- Created with Inkscape (http://www.inkscape.org/) -->

<!--
SPDX-FileCopyrightText: 2023 Mathis Brüchert <mbb@kaidan.im>

SPDX-License-Identifier: GPL-2.0-only OR GPL-3.0-only OR LicenseRef-KDE-Accepted-GPL
-->

<svg
   width="410mm"
   height="200mm"
   viewBox="0 0 410.00001 199.99999"
   version="1.1"
   id="svg5"
   xml:space="preserve"
   inkscape:version="1.2.2 (b0a8486541, 2022-12-01)"
   sodipodi:docname="played_placeholder.svg"
   xmlns:inkscape="http://www.inkscape.org/namespaces/inkscape"
   xmlns:sodipodi="http://sodipodi.sourceforge.net/DTD/sodipodi-0.dtd"
   xmlns="http://www.w3.org/2000/svg"
   xmlns:svg="http://www.w3.org/2000/svg"><sodipodi:namedview
     id="namedview7"
     pagecolor="#ffffff"
     bordercolor="#999999"
     borderopacity="1"
     inkscape:showpageshadow="0"
     inkscape:pageopacity="0"
     inkscape:pagecheckerboard="0"
     inkscape:deskcolor="#d1d1d1"
     inkscape:document-units="mm"
     showgrid="false"
     inkscape:zoom="0.26286253"
     inkscape:cx="549.717"
     inkscape:cy="682.86645"
     inkscape:window-width="853"
     inkscape:window-height="990"
     inkscape:window-x="0"
     inkscape:window-y="0"
     inkscape:window-maximized="0"
     inkscape:current-layer="layer1"
     showguides="false"><inkscape:grid
       type="xygrid"
       id="grid1378"
       originx="-39.082456"
       originy="83.308533" /></sodipodi:namedview><defs
     id="defs2"><inkscape:path-effect
       effect="fillet_chamfer"
       id="path-effect3380"
       is_visible="true"
       lpeversion="1"
       nodesatellites_param="F,0,0,1,0,5.2916667,0,1 @ F,0,0,1,0,5.2916667,0,1 @ F,0,0,1,0,5.2916667,0,1"
       unit="px"
       method="auto"
       mode="F"
       radius="20"
       chamfer_steps="1"
       flexible="false"
       use_knot_distance="true"
       apply_no_radius="true"
       apply_with_radius="true"
       only_selected="false"
       hide_knots="false" /></defs><g
     inkscape:label="Layer 1"
     inkscape:groupmode="layer"
     id="layer1"
     transform="translate(-39.082456,83.30855)"><g
       id="g3784"
       transform="translate(5.5779931,16.882453)"><path
         id="path2136"
         style="opacity:0.33;fill:#000000;fill-opacity:1;stroke:none;stroke-width:1.86189;stroke-dasharray:none;stroke-opacity:0.882353"
         d="m 250.59587,-83.30855 c -12.80337,1.985129 -26.29162,9.680256 -39.10109,11.658868 l -1.33455,11.432941 -5.14902,44.139773 c -1.82871,-1.736935 -4.17283,-2.833887 -6.67796,-3.126198 -6.39434,-0.746382 -12.18423,3.830112 -12.93037,10.2244936 -0.0906,0.775869 -0.10208,1.545901 -0.0416,2.296047 l -1.26165,1.759668 c 1.98087,2.357577 2.98079,3.562436 4.86071,5.75370803 0.007,0.0069 0.0142,0.01424 0.0213,0.02136 1.76301,1.66767497 4.05668,2.80234797 6.65171,3.10517197 6.39434,0.746383 12.18421,-3.83535797 12.93037,-10.22975 l 6.37844,-54.6847756 33.64731,-5.196316 -5.00192,42.857775 c -1.8287,-1.736995 -4.16757,-2.833886 -6.67272,-3.126197 -6.39433,-0.746383 -12.18418,3.835419 -12.93036,10.229751 -0.0956,0.821011 -0.10393,1.630593 -0.0316,2.42214 l -2.30656,0.257437 4.76548,5.8846016 c 0.0172,0.02136 0.0355,0.04169 0.0529,0.06304 l 0.23121,0.288955 0.005,-0.0053 c 1.84309,2.159621 4.47063,3.659097 7.51339,4.01414 6.39435,0.746384 12.17896,-3.830121 12.92511,-10.2244916 l 6.23137,-53.402774 1.3398,-11.432941 z"
         sodipodi:nodetypes="cccccsccccccccccscccscccsccc" /><path
         id="path2132"
         style="opacity:0.33;fill:#000000;fill-opacity:1;stroke:none;stroke-width:2.53185;stroke-dasharray:none;stroke-opacity:0.882353"
         d="m 414.76305,-42.591595 1.52996,12.194434 -10.39972,51.494964 c -2.25772,-2.581735 -5.2919,-4.361549 -8.64712,-5.072299 -8.56418,-1.814311 -16.9776,3.657567 -18.79186,12.221761 -1.81431,8.564179 3.65758,16.977596 12.22178,18.791851 8.56417,1.81431 16.97759,-3.657572 18.79184,-12.221765 l 11.21655,-55.350711 c 14.689,15.5572013 7.57838,38.078497 5.25117,41.005941 l 2.47668,3.709204 c 23.46666,-23.52468967 -3.30326,-35.661777 -7.81246,-65.051881 z"
         sodipodi:nodetypes="cccssscccccc" /><path
         id="path234"
         style="opacity:1;fill:#000000;fill-opacity:1;stroke:none;stroke-width:2.53185;stroke-dasharray:none;stroke-opacity:0.882353"
         d="m 414.64312,-42.271095 -1.46766,6.927632 -10.39973,51.494961 c -2.25773,-2.581737 -5.29189,-4.361547 -8.64712,-5.072297 -8.56417,-1.8143106 -16.9776,3.657569 -18.79185,12.221761 -1.81431,8.56418 3.65758,16.977596 12.22178,18.791851 8.56417,1.814311 16.97759,-3.657572 18.79184,-12.221765 l 11.21655,-55.35071 c 8.85494,17.7240249 17.47561,25.41804533 8.36872,45.952243 23.46665,-23.5246907 -0.58071,-32.03949 -5.08991,-61.429595 z"
         sodipodi:nodetypes="cccsssccccc" /><path
         id="path1206"
         style="opacity:1;fill:#000000;fill-opacity:1;stroke:none;stroke-width:1.86189;stroke-dasharray:none;stroke-opacity:0.882353"
         d="m 250.59395,-83.306324 -4.78137,0.737131 -4.5e-4,0.0038 -38.43113,5.936232 -1.3359,11.436417 -5.14833,44.138482 c -1.82871,-1.736935 -4.1708,-2.833247 -6.67596,-3.125557 -6.39434,-0.746384 -12.18473,3.831505 -12.93086,10.225908 -0.74639,6.3943506 3.8354,12.1851686 10.22974,12.9313376 6.39435,0.74638403 12.1809,-3.831952 12.92706,-10.2263636 l 6.38021,-54.684527 33.64971,-5.199365 -5.00263,42.860103 c -1.82871,-1.736995 -4.17036,-2.837129 -6.67551,-3.129439 -6.39435,-0.746384 -12.18131,3.835855 -12.92748,10.230207 -0.74638,6.394341 3.83194,12.1808896 10.22635,12.9270276 6.39437,0.746383 12.1809,-3.8319506 12.92704,-10.2263426 l 6.23365,-53.398483 z" /><circle
         style="opacity:0.33;fill:#000000;fill-opacity:1;stroke:none;stroke-width:22.9781;stroke-dasharray:none;stroke-opacity:0.882353"
         id="path2242"
         cx="46.478828"
         cy="-28.027006"
         r="7.3963723" /><circle
         style="opacity:0.33;fill:#000000;fill-opacity:1;stroke:none;stroke-width:34.0385;stroke-dasharray:none;stroke-opacity:0.882353"
         id="circle2244"
         cx="160.65797"
         cy="29.776529"
         r="10.956545" /><circle
         style="opacity:0.33;fill:#000000;fill-opacity:1;stroke:none;stroke-width:34.4533;stroke-dasharray:none;stroke-opacity:0.882353"
         id="circle2246"
         cx="308.24826"
         cy="-28.545715"
         r="11.090084" /><circle
         style="opacity:0.33;fill:#000000;fill-opacity:1;stroke:none;stroke-width:22.9781;stroke-dasharray:none;stroke-opacity:0.882353"
         id="circle2248"
         cx="358.07913"
         cy="27.152491"
         r="7.3963723" /><path
         id="path3189"
         style="opacity:1;fill:#000000;fill-opacity:1;stroke:none;stroke-width:0.564999;stroke-dasharray:none;stroke-opacity:1"
         d="M 88.302198,-20.630633 A 28.690096,29.400146 0 0 0 59.612472,8.7696393 28.690096,29.400146 0 0 0 88.302198,38.169912 28.690096,29.400146 0 0 0 116.99244,8.7696393 28.690096,29.400146 0 0 0 88.302198,-20.630633 Z m 0,21.7413083 a 7.4738884,7.6588593 0 0 1 7.47397,7.658964 7.4738884,7.6588593 0 0 1 -7.47397,7.6589647 7.4738884,7.6588593 0 0 1 -7.473967,-7.6589647 7.4738884,7.6588593 0 0 1 7.473967,-7.658964 z" /><path
         id="path3271"
         style="opacity:0.31;fill:#000000;fill-opacity:1;stroke:none;stroke-width:0.564999;stroke-dasharray:none;stroke-opacity:1"
         d="M 90.948048,-17.455631 A 28.690096,29.400146 0 0 0 62.258307,11.94464 28.690096,29.400146 0 0 0 90.948048,41.344914 28.690096,29.400146 0 0 0 119.63829,11.94464 28.690096,29.400146 0 0 0 90.948048,-17.455631 Z m 0,21.7413065 a 7.4738884,7.6588593 0 0 1 7.47397,7.6589645 7.4738884,7.6588593 0 0 1 -7.47397,7.658966 7.4738884,7.6588593 0 0 1 -7.47397,-7.658966 7.4738884,7.6588593 0 0 1 7.47397,-7.6589645 z" /><path
         id="path3325"
         style="opacity:1;fill:#000000;fill-opacity:1;stroke:none;stroke-width:0.214388;stroke-dasharray:none;stroke-opacity:1"
         inkscape:transform-center-x="-4.959854"
         inkscape:transform-center-y="4.9598554"
         d="m 239.8962,20.171856 a 4.3815311,4.3815311 0 0 0 -4.54524,5.504241 l 13.25331,49.461093 a 4.381492,4.381492 0 0 0 7.33034,1.964688 L 292.1424,40.893356 a 4.3814927,4.3814927 0 0 0 -1.96395,-7.330342 l -49.46109,-13.25257 a 4.3815311,4.3815311 0 0 0 -0.82116,-0.138588 z" /><path
         id="path3383"
         style="opacity:0.33;fill:#000000;fill-opacity:1;stroke:none;stroke-width:0.214388;stroke-dasharray:none;stroke-opacity:1"
         inkscape:transform-center-x="-4.959769"
         inkscape:transform-center-y="4.9598588"
         d="m 243.6907,24.72525 c -3.0042,-0.215135 -5.32469,2.594953 -4.54523,5.504241 -0.32195,7.307721 10.08785,46.26688 10.08785,46.26688 l 4.6507,5.473874 0.007,-0.01556 c 1.73787,1.402494 4.25249,1.273523 5.83774,-0.29941 L 295.93673,45.44675 c 1.46747,-1.470769 1.70023,-3.769945 0.55731,-5.504982 l 0.004,-0.0022 -0.0334,-0.04447 c -0.069,-0.101093 -0.14213,-0.199256 -0.21937,-0.294223 l -3.74508,-4.49848 c -14.28035,8.610206 -33.42491,-5.131775 -47.989,-10.238538 -0.2687,-0.07216 -0.54366,-0.118568 -0.82116,-0.138588 z"
         sodipodi:nodetypes="ccccccccccccccc" /></g></g></svg>
