<?xml version="1.0" encoding="UTF-8" standalone="no"?>
<!-- Created with Inkscape (http://www.inkscape.org/) -->

<!--
SPDX-FileCopyrightText: 2023 Mathis Brüchert <mbb@kaidan.im>

SPDX-License-Identifier: GPL-2.0-only OR GPL-3.0-only OR LicenseRef-KDE-Accepted-GPL
-->

<svg
   width="410mm"
   height="200mm"
   viewBox="0 0 410.00001 199.99999"
   version="1.1"
   id="svg5"
   xml:space="preserve"
   inkscape:version="1.2.2 (b0a8486541, 2022-12-01)"
   sodipodi:docname="playlist_placeholder.svg"
   xmlns:inkscape="http://www.inkscape.org/namespaces/inkscape"
   xmlns:sodipodi="http://sodipodi.sourceforge.net/DTD/sodipodi-0.dtd"
   xmlns="http://www.w3.org/2000/svg"
   xmlns:svg="http://www.w3.org/2000/svg"><sodipodi:namedview
     id="namedview7"
     pagecolor="#ffffff"
     bordercolor="#999999"
     borderopacity="1"
     inkscape:showpageshadow="0"
     inkscape:pageopacity="0"
     inkscape:pagecheckerboard="0"
     inkscape:deskcolor="#d1d1d1"
     inkscape:document-units="mm"
     showgrid="false"
     inkscape:zoom="0.26286253"
     inkscape:cx="551.61913"
     inkscape:cy="686.67071"
     inkscape:window-width="1707"
     inkscape:window-height="980"
     inkscape:window-x="0"
     inkscape:window-y="0"
     inkscape:window-maximized="1"
     inkscape:current-layer="layer1"
     showguides="false"><inkscape:grid
       type="xygrid"
       id="grid1378"
       originx="-39.082456"
       originy="83.308533" /></sodipodi:namedview><defs
     id="defs2"><inkscape:path-effect
       effect="fillet_chamfer"
       id="path-effect3380"
       is_visible="true"
       lpeversion="1"
       nodesatellites_param="F,0,0,1,0,5.2916667,0,1 @ F,0,0,1,0,5.2916667,0,1 @ F,0,0,1,0,5.2916667,0,1"
       unit="px"
       method="auto"
       mode="F"
       radius="20"
       chamfer_steps="1"
       flexible="false"
       use_knot_distance="true"
       apply_no_radius="true"
       apply_with_radius="true"
       only_selected="false"
       hide_knots="false" /></defs><g
     inkscape:label="Layer 1"
     inkscape:groupmode="layer"
     id="layer1"
     transform="translate(-39.082456,83.30855)"><path
       id="path2136"
       style="opacity:0.33;fill:#000000;fill-opacity:1;stroke:none;stroke-width:1.68102;stroke-dasharray:none;stroke-opacity:0.882353"
       d="m 139.38625,-43.342947 c -11.37292,2.737209 -22.93798,10.663102 -34.31688,13.394901 l -0.3516,10.386404 -1.35446,40.099104 c -1.77448,-1.42705 -3.965176,-2.239961 -6.240981,-2.316911 -5.809021,-0.196633 -10.678795,4.351328 -10.875202,10.160368 -0.02393,0.704848 0.02293,1.398574 0.133108,2.069051 l -1.004515,1.67705 c 1.957486,1.974197 2.946697,2.984047 4.801004,4.816099 0.0073,0.0054 0.01382,0.01174 0.02077,0.0176 1.710212,1.369611 3.858325,2.220215 6.215802,2.299938 5.809024,0.196641 10.678384,-4.356033 10.874804,-10.165091 l 1.67743,-49.678736 29.88962,-7.174848 -1.31731,38.934645 c -1.77447,-1.4271041 -3.96045,-2.2403533 -6.23626,-2.3172963 -5.80902,-0.1966351 -10.67836,4.3560943 -10.87482,10.1650973 -0.025,0.745837 0.0276,1.474909 0.15149,2.181763 l -2.05631,0.40297 4.72504,4.940955 c 0.0171,0.01797 0.035,0.03485 0.0523,0.05282 l 0.2295,0.242822 0.004,-0.0054 c 1.8188,1.806312 4.29443,2.960366 7.05866,3.05382 5.80902,0.196633 10.67404,-4.35094 10.87047,-10.159971 l 1.6403,-48.51428 0.35634,-10.386794 z"
       sodipodi:nodetypes="cccccsccccccccccscccscccsccc" /><path
       id="path2132"
       style="opacity:0.33;fill:#000000;fill-opacity:1;stroke:none;stroke-width:1.69753;stroke-dasharray:none;stroke-opacity:0.882353"
       d="m 283.02463,39.114807 -0.28811,8.252648 -12.35303,33.039015 c -1.21626,-1.954858 -3.03079,-3.461187 -5.17123,-4.292897 -5.46339,-2.123032 -11.60319,0.602936 -13.71355,6.088599 -2.1104,5.485656 0.60777,11.653713 6.0712,13.7767 5.4634,2.123032 11.60319,-0.602943 13.71354,-6.088605 l 13.30316,-35.508752 c 8.04527,11.89614 0.95028,26.070594 -0.89858,27.762415 l 1.24083,2.726202 c 18.00495,-13.083655 1.61603,-24.008559 1.76765,-43.986717 z"
       sodipodi:nodetypes="cccssscccccc" /><path
       id="path234"
       style="fill:#000000;fill-opacity:1;stroke:none;stroke-width:1.69753;stroke-dasharray:none;stroke-opacity:0.882353"
       d="m 282.9113,39.314509 -1.70716,4.437388 -12.35303,33.039006 c -1.21628,-1.954858 -3.0308,-3.461188 -5.17122,-4.292896 -5.46341,-2.123032 -11.60319,0.602934 -13.71355,6.088599 -2.1104,5.485656 0.60777,11.653724 6.0712,13.776711 5.46339,2.123021 11.60319,-0.602944 13.71354,-6.088617 l 13.30315,-35.508751 c 3.96114,12.706902 8.8357,18.735903 0.6338,31.377981 18.00496,-13.083655 3.02852,-21.313605 3.18013,-41.291763 z"
       sodipodi:nodetypes="cccsssccccc" /><path
       id="path1206"
       style="fill:#000000;fill-opacity:1;stroke:none;stroke-width:1.68102;stroke-dasharray:none;stroke-opacity:0.882353"
       d="m 139.38469,-43.340801 -4.24749,1.018414 -1.2e-4,0.0035 -34.13912,8.195951 -0.35256,10.389632 -1.353929,40.09789 c -1.774478,-1.42705 -3.96331,-2.239538 -6.239141,-2.316479 -5.809022,-0.196636 -10.679139,4.352614 -10.875537,10.161672 -0.196642,5.80903 4.35615,10.679238 10.165154,10.875681 5.80903,0.196632 10.675653,-4.352728 10.872073,-10.161796 l 1.67904,-49.678648 29.89156,-7.177771 -1.31778,38.9367928 c -1.77448,-1.4271032 -3.96319,-2.2430641 -6.23902,-2.3200062 -5.80903,-0.1966334 -10.67574,4.3562736 -10.87218,10.1652894 -0.19663,5.809021 4.35272,10.675654 10.16178,10.87206 5.80905,0.196632 10.67566,-4.352728 10.87207,-10.161782 l 1.64268,-48.510587 z" /><circle
       style="opacity:0.33;fill:#000000;fill-opacity:1;stroke:none;stroke-width:20.7459;stroke-dasharray:none;stroke-opacity:0.882353"
       id="path2242"
       cx="45.760292"
       cy="-2.0380547"
       r="6.6778393" /><circle
       style="opacity:0.33;fill:#000000;fill-opacity:1;stroke:none;stroke-width:30.7318;stroke-dasharray:none;stroke-opacity:0.882353"
       id="circle2244"
       cx="77.658318"
       cy="87.312569"
       transform="rotate(-4.7190476)"
       r="9.8921537" /><circle
       style="opacity:0.33;fill:#000000;fill-opacity:1;stroke:none;stroke-width:31.1063;stroke-dasharray:none;stroke-opacity:0.882353"
       id="circle2246"
       cx="222.39978"
       cy="-35.255112"
       r="10.012719" /><circle
       style="opacity:0.33;fill:#000000;fill-opacity:1;stroke:none;stroke-width:31.1063;stroke-dasharray:none;stroke-opacity:0.882353"
       id="circle2246-3"
       cx="397.58585"
       cy="74.840965"
       r="10.012719" /><circle
       style="opacity:0.33;fill:#000000;fill-opacity:1;stroke:none;stroke-width:20.7459;stroke-dasharray:none;stroke-opacity:0.882353"
       id="circle2248"
       cx="442.40463"
       cy="-11.288243"
       r="6.6778393" /><circle
       style="opacity:0.33;fill:#000000;fill-opacity:1;stroke:none;stroke-width:20.7459;stroke-dasharray:none;stroke-opacity:0.882353"
       id="circle2248-6"
       cx="322.61847"
       cy="4.6397829"
       r="6.6778393" /><path
       id="path3325"
       style="fill:#000000;fill-opacity:1;stroke:none;stroke-width:0.193561;stroke-dasharray:none;stroke-opacity:1"
       inkscape:transform-center-x="-4.4780241"
       inkscape:transform-center-y="4.4780251"
       d="m 372.11745,-34.989827 a 3.95588,3.95588 0 0 0 -4.10368,4.969522 l 11.96578,44.656113 a 3.9558446,3.9558446 0 0 0 6.61823,1.773824 l 32.69032,-32.690984 a 3.9558453,3.9558453 0 0 0 -1.77316,-6.618223 l -44.65611,-11.965127 a 3.95588,3.95588 0 0 0 -0.74138,-0.125125 z" /><path
       id="path3383"
       style="opacity:0.33;fill:#000000;fill-opacity:1;stroke:none;stroke-width:0.193561;stroke-dasharray:none;stroke-opacity:1"
       inkscape:transform-center-x="-4.4777849"
       inkscape:transform-center-y="4.4780268"
       d="m 375.54332,-30.87878 c -2.71234,-0.194235 -4.80741,2.342861 -4.10368,4.969522 -0.29067,6.5978 9.10786,41.772207 9.10786,41.772207 l 4.1989,4.942109 0.006,-0.01408 c 1.56904,1.266242 3.83937,1.149801 5.27063,-0.270324 l 32.69048,-32.690955 c 1.32491,-1.327888 1.53506,-3.403708 0.50317,-4.970191 l 0.004,-0.0019 -0.0302,-0.04015 c -0.0623,-0.09127 -0.12832,-0.179898 -0.19805,-0.26564 l -3.38126,-4.061467 c -12.89307,7.773753 -30.17779,-4.63324 -43.32703,-9.243898 -0.24259,-0.06515 -0.49084,-0.10705 -0.74138,-0.125125 z"
       sodipodi:nodetypes="ccccccccccccccc" /><path
       id="path594"
       style="color:#eff0f1;fill:#000000;fill-opacity:1;stroke:none;stroke-width:4.94073"
       d="m 217.63542,7.3848952 c -3.09679,6.41e-4 -6.65561,2.1443669 -7.54478,5.3906598 -1.04418,3.812164 1.8544,8.191782 5.19003,9.105433 3.95513,1.083325 8.06126,-1.37788 9.10544,-5.190041 1.04417,-3.812163 -1.23493,-8.0221005 -5.19004,-9.1054297 -0.49514,-0.1356203 -1.02085,-0.200726 -1.56065,-0.2006366 z m 20.18209,5.3691868 a 2.6144694,2.6144694 0 0 0 -2.63374,1.921303 2.4745642,2.4745642 0 0 0 1.90731,2.934205 l 47.3738,12.976033 a 2.6144694,2.6144694 0 0 0 3.21229,-1.830787 2.4745642,2.4745642 0 0 0 -1.90685,-2.934211 L 238.39605,12.844127 a 2.6144694,2.6144694 0 0 0 -0.57854,-0.09002 z m -2.61041,9.530004 a 2.6144694,2.6144694 0 0 0 -2.63375,1.921768 2.4745642,2.4745642 0 0 0 1.9073,2.93421 l 14.01741,3.839339 a 2.6144694,2.6144694 0 0 0 3.21228,-1.830788 2.4745642,2.4745642 0 0 0 -1.90684,-2.93421 l -14.01788,-3.839808 a 2.6144694,2.6144694 0 0 0 -0.57852,-0.09051 z m -25.64788,13.652081 c -3.25937,-2.34e-4 -6.42982,2.254009 -7.29982,5.43032 -1.04418,3.812163 1.37787,8.061721 5.19003,9.105898 3.81216,1.044169 8.06125,-1.37788 9.10543,-5.190043 1.03113,-3.76451 -1.37787,-8.061721 -5.19003,-9.105898 -0.59566,-0.163155 -1.20202,-0.240232 -1.80561,-0.240277 z m 20.42705,5.408859 a 2.6144694,2.6144694 0 0 0 -2.63375,1.921299 2.4745642,2.4745642 0 0 0 1.90683,2.93468 l 28.31335,7.755194 a 2.6144694,2.6144694 0 0 0 3.21228,-1.831249 2.4745642,2.4745642 0 0 0 -1.90685,-2.934219 L 230.5648,41.435537 a 2.6144694,2.6144694 0 0 0 -0.57853,-0.09051 z m -2.61042,9.530466 a 2.6144694,2.6144694 0 0 0 -2.63375,1.921298 2.4745642,2.4745642 0 0 0 1.90684,2.934211 l 18.78287,5.144783 a 2.6144694,2.6144694 0 0 0 3.21229,-1.830788 2.4745642,2.4745642 0 0 0 -1.90686,-2.93421 l -18.78286,-5.144783 a 2.6144694,2.6144694 0 0 0 -0.57853,-0.09051 z m -25.64741,13.648831 c -3.25674,-0.0098 -6.41928,2.217074 -7.3003,5.433587 -1.04418,3.812163 1.37787,8.061253 5.19004,9.10543 3.81216,1.044176 8.06125,-1.377412 9.10543,-5.189574 1.04417,-3.812163 -1.37789,-8.061722 -5.19005,-9.105899 -0.59564,-0.163145 -1.20203,-0.241721 -1.80512,-0.243544 z m 20.42657,5.412126 a 2.6144694,2.6144694 0 0 0 -2.63374,1.921299 2.4745643,2.4745643 0 0 0 1.90683,2.93421 l 18.78287,5.144784 a 2.6144694,2.6144694 0 0 0 3.21228,-1.830787 2.4745643,2.4745643 0 0 0 -1.90683,-2.93421 L 222.73354,70.02696 a 2.6144694,2.6144694 0 0 0 -0.57853,-0.09051 z m -2.61043,9.530466 a 2.6144694,2.6144694 0 0 0 -2.63373,1.921308 2.4745642,2.4745642 0 0 0 1.90684,2.93421 l 14.01787,3.839809 a 2.6144694,2.6144694 0 0 0 3.21227,-1.831258 2.4745642,2.4745642 0 0 0 -1.9073,-2.93421 l -14.0174,-3.839348 a 2.6144694,2.6144694 0 0 0 -0.57855,-0.09051 z" /><path
       id="path654"
       style="color:#eff0f1;opacity:0.33;fill:#000000;fill-opacity:1;stroke:none;stroke-width:4.94073"
       d="m 219.54645,11.206975 c -3.09679,6.42e-4 -6.65561,2.144367 -7.54478,5.390659 -1.04418,3.812164 1.8544,8.19178 5.19004,9.105431 3.95512,1.083324 8.06126,-1.37788 9.10544,-5.190043 1.04416,-3.812155 -1.23493,-8.022095 -5.19004,-9.105425 -0.49514,-0.135619 -1.02085,-0.200726 -1.56065,-0.200636 z m 20.18209,5.369187 a 2.6144694,2.6144694 0 0 0 -2.63374,1.921303 2.4745642,2.4745642 0 0 0 1.9073,2.93421 l 47.37381,12.976034 a 2.6144694,2.6144694 0 0 0 3.21229,-1.830788 2.4745642,2.4745642 0 0 0 -1.90684,-2.934219 L 240.30709,16.666208 a 2.6144694,2.6144694 0 0 0 -0.57855,-0.09002 z m -2.6104,9.53 a 2.6144694,2.6144694 0 0 0 -2.63376,1.921769 2.4745642,2.4745642 0 0 0 1.90731,2.93421 l 14.0174,3.839338 a 2.6144694,2.6144694 0 0 0 3.21228,-1.830787 2.4745642,2.4745642 0 0 0 -1.90684,-2.93421 l -14.01786,-3.839809 a 2.6144694,2.6144694 0 0 0 -0.57853,-0.09051 z m -25.64788,13.652081 c -3.25938,-2.35e-4 -6.42982,2.25401 -7.29983,5.43032 -1.04418,3.812162 1.37787,8.061722 5.19004,9.105898 3.81216,1.044169 8.06125,-1.37788 9.10543,-5.190043 1.03111,-3.76451 -1.37787,-8.061721 -5.19003,-9.105898 -0.59566,-0.163155 -1.20203,-0.240232 -1.80561,-0.240277 z m 20.42704,5.40885 a 2.6144694,2.6144694 0 0 0 -2.63375,1.921308 2.4745642,2.4745642 0 0 0 1.90683,2.93468 l 28.31335,7.755194 a 2.6144694,2.6144694 0 0 0 3.21228,-1.831258 2.4745642,2.4745642 0 0 0 -1.90685,-2.93421 l -28.31333,-7.755194 a 2.6144694,2.6144694 0 0 0 -0.57853,-0.09052 z m -2.61042,9.530475 a 2.6144694,2.6144694 0 0 0 -2.63374,1.921308 2.4745642,2.4745642 0 0 0 1.90684,2.93421 l 18.78287,5.144783 a 2.6144694,2.6144694 0 0 0 3.21227,-1.830797 2.4745642,2.4745642 0 0 0 -1.90683,-2.93421 l -18.78287,-5.144783 a 2.6144694,2.6144694 0 0 0 -0.57854,-0.09051 z m -25.64741,13.648831 c -3.25673,-0.0098 -6.41928,2.217074 -7.30029,5.433587 -1.04419,3.812164 1.37787,8.061253 5.19004,9.10543 3.81216,1.044177 8.06125,-1.377411 9.10543,-5.189573 1.04417,-3.812164 -1.37789,-8.061723 -5.19005,-9.1059 -0.59565,-0.163145 -1.20203,-0.24172 -1.80513,-0.243544 z m 20.42657,5.412127 a 2.6144694,2.6144694 0 0 0 -2.63374,1.921298 2.4745643,2.4745643 0 0 0 1.90684,2.934211 l 18.78286,5.144783 a 2.6144694,2.6144694 0 0 0 3.21229,-1.830788 2.4745643,2.4745643 0 0 0 -1.90684,-2.93421 l -18.78287,-5.144783 a 2.6144694,2.6144694 0 0 0 -0.57854,-0.09051 z m -2.61042,9.530465 a 2.6144694,2.6144694 0 0 0 -2.63374,1.921308 2.4745642,2.4745642 0 0 0 1.90685,2.93421 l 14.01785,3.839809 a 2.6144694,2.6144694 0 0 0 3.21229,-1.831258 2.4745642,2.4745642 0 0 0 -1.9073,-2.93421 l -14.01741,-3.839348 a 2.6144694,2.6144694 0 0 0 -0.57854,-0.09051 z" /></g></svg>
