<svg xmlns="http://www.w3.org/2000/svg" xmlns:xlink="http://www.w3.org/1999/xlink" xml:space="preserve" width="48" height="48" viewBox="0 0 12.7 12.7"><defs><linearGradient id="c"><stop offset="0" stop-color="#dc8689"/><stop offset="1" stop-color="#d56062"/></linearGradient><linearGradient id="b"><stop offset="0" stop-color="#da4453"/><stop offset="1" stop-color="#e74c3c"/></linearGradient><linearGradient id="a"><stop offset="0" stop-color="#c0392b"/><stop offset="1" stop-color="#c0392b" stop-opacity="0"/></linearGradient><linearGradient xlink:href="#a" id="e" x1="6.08542" x2="6.08542" y1="6.35" y2="11.3773" gradientUnits="userSpaceOnUse"/><linearGradient xlink:href="#b" id="d" x1="6.61458" x2="6.61458" y1="6.2178" y2="1.0583" gradientTransform="translate(0 -.15143)" gradientUnits="userSpaceOnUse"/><linearGradient xlink:href="#c" id="g" x1="10.58366" x2="11.64167" y1="6.08397" y2="6.08542" gradientUnits="userSpaceOnUse"/><linearGradient xlink:href="#c" id="f" x1="1.05833" x2="2.38125" y1="6.08542" y2="6.08542" gradientTransform="translate(-3.43958)" gradientUnits="userSpaceOnUse"/></defs><rect width="10.583" height="10.583" x="1.0584" y="1.0583" fill="#a83226" paint-order="stroke fill markers" rx="1.5875" ry="1.5875"/><rect width="10.583" height="10.319" x="1.0584" y=".90687" fill="url(#d)" paint-order="stroke fill markers" rx="1.5875" ry="1.5875"/><circle cx="6.35" cy="6.34408" r="3.97467" fill="none" stroke="#a83226" stroke-linecap="square" stroke-width=".51752"/><path fill="url(#e)" d="M1.05885 6.08542v3.83645c0 .87947.70803 1.5875 1.5875 1.5875h7.40782c.87946 0 1.5875-.70803 1.5875-1.5875V6.08542Z" paint-order="stroke fill markers"/><path fill="#ad3327" d="M1.05833 6.08542v.52916h2.51355a.132.132 0 0 0 .13229-.13229v-.26458a.132.132 0 0 0-.1323-.1323H1.05834z"/><path fill="#ac3327" d="M9.6578 6.08542a.132.132 0 0 0-.13228.13229v.26458a.132.132 0 0 0 .13229.1323h1.98386v-.52917Z"/><circle cx="6.3499" cy="6.06637" r="3.97467" fill="none" stroke="#dc8689" stroke-linecap="square" stroke-width=".51752"/><g fill="#ad3327" transform="translate(-.52917 -.26458)"><rect width=".52917" height=".52917" x="4.49792" y="6.35" rx=".13229" ry=".13229"/><rect width=".52917" height="4.7625" x="5.29167" y="4.49792" rx=".13229" ry=".13229"/><rect width=".52917" height="3.70417" x="6.08542" y="5.02708" rx=".13229" ry=".13229"/><rect width=".52917" height="2.64583" x="6.87917" y="5.55625" rx=".13229" ry=".13229"/><rect width=".52917" height="1.5875" x="7.67292" y="6.08542" rx=".13229" ry=".13229"/></g><path fill="#a83226" d="M7.9375 6.489v.27958c0 .06128.059.11059.1323.11059h.26458c.07328 0 .13229-.0493.13229-.1106v-.27956c-.00353.0701-.0613.12557-.1323.12557H8.0698c-.071 0-.12876-.05548-.13229-.12557z"/><path fill="#ad3327" d="M8.73125 6.22443V6.504c0 .06128.059.11058.1323.11058h.26458c.07328 0 .13229-.0493.13229-.11058v-.27957c-.00353.07009-.0613.12557-.1323.12557h-.26458c-.071 0-.12876-.05548-.13229-.12557z"/><rect width=".52917" height=".52917" x="3.96875" y="5.82083" fill="#f0b4ba" rx=".13229" ry=".13229"/><rect width=".52917" height="5.29167" x="4.7625" y="3.43958" fill="#fff" rx=".13229" ry=".13229"/><rect width=".52917" height="4.23333" x="5.55625" y="3.96875" fill="#fff" rx=".13229" ry=".13229"/><rect width=".52917" height="3.175" x="6.35" y="4.49792" fill="#fff" rx=".13229" ry=".13229"/><rect width=".52917" height="2.11667" x="7.14375" y="5.02708" fill="#fff" rx=".13229" ry=".13229"/><rect width=".52917" height="1.05833" x="7.9375" y="5.55625" fill="#fff" rx=".13229" ry=".13229"/><path fill="#dc8689" d="M2.38125 5.82083V6.35h1.19063a.132.132 0 0 0 .13229-.1323v-.26457a.132.132 0 0 0-.1323-.1323z"/><rect width=".52917" height=".52917" x="9.26042" y="6.08542" fill="#f0b4ba" rx=".13229" ry=".13229" transform="translate(-.52917 -.26458)"/><path fill="#dc8689" d="M9.6573 5.82083a.132.132 0 0 0-.1323.1323v.26458a.132.132 0 0 0 .1323.13229h.66145v-.52917Z"/><rect width="1.32292" height=".52917" x="-2.38125" y="5.82083" fill="url(#f)" rx="0" ry="0" transform="scale(-1 1)"/><rect width="1.32292" height=".52917" x="10.31875" y="5.82083" fill="url(#g)" rx="0" ry="0"/></svg>