<!--
SPDX-FileCopyrightText: 2021 Mathis Brüchert <mbblp@protonmail.ch>

SPDX-License-Identifier: GPL-2.0-only OR GPL-3.0-only OR LicenseRef-KDE-Accepted-GPL
-->

<?xml version="1.0" encoding="UTF-8"?><svg width="48" height="48" version="1.1" viewBox="0 0 12.7 12.7" xmlns="http://www.w3.org/2000/svg" xmlns:cc="http://creativecommons.org/ns#" xmlns:dc="http://purl.org/dc/elements/1.1/" xmlns:rdf="http://www.w3.org/1999/02/22-rdf-syntax-ns#" xmlns:xlink="http://www.w3.org/1999/xlink"><defs><linearGradient id="a" x1="25" x2="25" y1="3" y2="42.605" gradientTransform="matrix(.26458 0 0 .26458 5.101e-5 3.6667e-7)" gradientUnits="userSpaceOnUse"><stop stop-color="#f47750" offset="0"/><stop stop-color="#ed1515" offset="1"/></linearGradient><linearGradient id="d" x1="24" x2="24" y1="35.353" y2="12.647" gradientUnits="userSpaceOnUse"><stop stop-color="#31363b" offset="0"/><stop stop-color="#5f6a73" offset="1"/></linearGradient><linearGradient id="c" x1="24" x2="24" y1="29" y2="19" gradientUnits="userSpaceOnUse"><stop stop-color="#4d4d4d" offset="0"/><stop stop-color="#737373" offset="1"/></linearGradient><linearGradient id="b" x1="6.35" x2="6.35" y1="9.525" y2="-1.8372" gradientUnits="userSpaceOnUse"><stop stop-color="#7f8c8d" offset="0"/><stop stop-color="#929d9e" offset="1"/></linearGradient></defs><metadata><rdf:RDF><cc:Work rdf:about=""><dc:format>image/svg+xml</dc:format><dc:type rdf:resource="http://purl.org/dc/dcmitype/StillImage"/><dc:title/></cc:Work></rdf:RDF></metadata><g stroke-width=".26458"><rect x="1.0584" y="1.0583" width="10.583" height="10.583" rx="1.5875" ry="1.5875" fill="#a83226" style="paint-order:stroke fill markers"/><rect x="1.0584" y="1.0583" width="10.583" height="10.319" rx="1.5875" ry="1.5875" fill="url(#a)" style="paint-order:stroke fill markers"/><circle cx="6.35" cy="6.35" r="3.175" fill="none" stroke="#eee" stroke-linecap="square" stroke-width=".26458"/><path d="m8.3465 6.35-3.0549 1.7637 3e-7 -1.7637-3e-7 -1.7637 1.5274 0.88187z" fill="#fff"/><path d="m2.3962 5.8208a3.9538 3.9538 0 0 1 3.9538-3.9538 3.9538 3.9538 0 0 1 3.9538 3.9538" fill="none" stroke="url(#b)" stroke-linecap="square" stroke-width=".26458"/><path d="m4.3731 2.3967a3.9538 3.9538 0 0 1 3.9538 1e-7" fill="none" stroke="#6b6b6b" stroke-linecap="round" stroke-width=".52917"/><path transform="scale(.26458)" d="m8 19c-0.554 0-1 0.446-1 1v8c0 0.554 0.446 1 1 1h2c0.554 0 1-0.446 1-1v-8c0-0.554-0.446-1-1-1h-2zm30 0c-0.554 0-1 0.446-1 1v8c0 0.554 0.446 1 1 1h2c0.554 0 1-0.446 1-1v-8c0-0.554-0.446-1-1-1h-2z" fill="url(#c)"/><path transform="scale(.26458)" d="m8 19c-0.554 0-1 0.446-1 1v8c0 0.554 0.446 1 1 1h2v-10h-2zm30 0v10h2c0.554 0 1-0.446 1-1v-8c0-0.554-0.446-1-1-1h-2z" fill="url(#d)"/></g></svg>
